<mxfile host="app.diagrams.net" modified="2024-05-18T11:12:51.840Z" agent="Mozilla/5.0 (Windows NT 10.0; Win64; x64) AppleWebKit/537.36 (KHTML, like Gecko) Chrome/125.0.0.0 Safari/537.36" etag="GyB34xHsJgzkbcRwsHzy" version="24.4.4" type="github">
  <diagram name="Seite-1" id="6TWZkrGFnJNyo3eU7zf7">
    <mxGraphModel dx="1744" dy="883" grid="1" gridSize="10" guides="1" tooltips="1" connect="1" arrows="1" fold="1" page="1" pageScale="1" pageWidth="840" pageHeight="1000" math="0" shadow="0">
      <root>
        <mxCell id="0" />
        <mxCell id="1" parent="0" />
        <mxCell id="zQ9of0heOYMWUSIYJV7x-1" value="Individuelle Schicht erstellen" style="shape=umlFrame;whiteSpace=wrap;html=1;pointerEvents=0;width=180;height=30;align=left;" vertex="1" parent="1">
          <mxGeometry x="20" y="20" width="550" height="770" as="geometry" />
        </mxCell>
        <mxCell id="zQ9of0heOYMWUSIYJV7x-9" style="edgeStyle=orthogonalEdgeStyle;rounded=0;orthogonalLoop=1;jettySize=auto;html=1;entryX=0.5;entryY=0;entryDx=0;entryDy=0;endArrow=open;endFill=0;" edge="1" parent="1" source="zQ9of0heOYMWUSIYJV7x-2" target="zQ9of0heOYMWUSIYJV7x-4">
          <mxGeometry relative="1" as="geometry" />
        </mxCell>
        <mxCell id="zQ9of0heOYMWUSIYJV7x-2" value="" style="ellipse;fillColor=strokeColor;html=1;" vertex="1" parent="1">
          <mxGeometry x="270" y="80" width="20" height="20" as="geometry" />
        </mxCell>
        <mxCell id="zQ9of0heOYMWUSIYJV7x-10" style="edgeStyle=orthogonalEdgeStyle;rounded=0;orthogonalLoop=1;jettySize=auto;html=1;entryX=0.5;entryY=0;entryDx=0;entryDy=0;strokeColor=default;align=center;verticalAlign=middle;fontFamily=Helvetica;fontSize=11;fontColor=default;labelBackgroundColor=default;endArrow=open;endFill=0;" edge="1" parent="1" source="zQ9of0heOYMWUSIYJV7x-4" target="zQ9of0heOYMWUSIYJV7x-5">
          <mxGeometry relative="1" as="geometry" />
        </mxCell>
        <mxCell id="zQ9of0heOYMWUSIYJV7x-4" value="Bezeichnung eingeben" style="rounded=1;whiteSpace=wrap;html=1;" vertex="1" parent="1">
          <mxGeometry x="220" y="157" width="120" height="60" as="geometry" />
        </mxCell>
        <mxCell id="zQ9of0heOYMWUSIYJV7x-11" style="edgeStyle=orthogonalEdgeStyle;rounded=0;orthogonalLoop=1;jettySize=auto;html=1;entryX=0.5;entryY=0;entryDx=0;entryDy=0;strokeColor=default;align=center;verticalAlign=middle;fontFamily=Helvetica;fontSize=11;fontColor=default;labelBackgroundColor=default;endArrow=open;endFill=0;" edge="1" parent="1" source="zQ9of0heOYMWUSIYJV7x-5" target="zQ9of0heOYMWUSIYJV7x-6">
          <mxGeometry relative="1" as="geometry" />
        </mxCell>
        <mxCell id="zQ9of0heOYMWUSIYJV7x-5" value="Startzeit eingeben" style="rounded=1;whiteSpace=wrap;html=1;" vertex="1" parent="1">
          <mxGeometry x="220" y="260" width="120" height="60" as="geometry" />
        </mxCell>
        <mxCell id="zQ9of0heOYMWUSIYJV7x-12" style="edgeStyle=orthogonalEdgeStyle;rounded=0;orthogonalLoop=1;jettySize=auto;html=1;entryX=0.5;entryY=0;entryDx=0;entryDy=0;strokeColor=default;align=center;verticalAlign=middle;fontFamily=Helvetica;fontSize=11;fontColor=default;labelBackgroundColor=default;endArrow=open;endFill=0;" edge="1" parent="1" source="zQ9of0heOYMWUSIYJV7x-6" target="zQ9of0heOYMWUSIYJV7x-7">
          <mxGeometry relative="1" as="geometry" />
        </mxCell>
        <mxCell id="zQ9of0heOYMWUSIYJV7x-6" value="Endzeit eingeben" style="rounded=1;whiteSpace=wrap;html=1;" vertex="1" parent="1">
          <mxGeometry x="220" y="370" width="120" height="60" as="geometry" />
        </mxCell>
        <mxCell id="zQ9of0heOYMWUSIYJV7x-15" style="edgeStyle=orthogonalEdgeStyle;rounded=0;orthogonalLoop=1;jettySize=auto;html=1;entryX=0.5;entryY=0;entryDx=0;entryDy=0;strokeColor=default;align=center;verticalAlign=middle;fontFamily=Helvetica;fontSize=11;fontColor=default;labelBackgroundColor=default;endArrow=open;endFill=0;" edge="1" parent="1" source="zQ9of0heOYMWUSIYJV7x-7" target="zQ9of0heOYMWUSIYJV7x-13">
          <mxGeometry relative="1" as="geometry" />
        </mxCell>
        <mxCell id="zQ9of0heOYMWUSIYJV7x-16" style="edgeStyle=orthogonalEdgeStyle;rounded=0;orthogonalLoop=1;jettySize=auto;html=1;entryX=1;entryY=0.5;entryDx=0;entryDy=0;strokeColor=default;align=center;verticalAlign=middle;fontFamily=Helvetica;fontSize=11;fontColor=default;labelBackgroundColor=default;endArrow=open;endFill=0;" edge="1" parent="1" source="zQ9of0heOYMWUSIYJV7x-7" target="zQ9of0heOYMWUSIYJV7x-14">
          <mxGeometry relative="1" as="geometry" />
        </mxCell>
        <mxCell id="zQ9of0heOYMWUSIYJV7x-7" value="" style="rhombus;whiteSpace=wrap;html=1;" vertex="1" parent="1">
          <mxGeometry x="255" y="482" width="50" height="50" as="geometry" />
        </mxCell>
        <mxCell id="zQ9of0heOYMWUSIYJV7x-8" value="" style="ellipse;html=1;shape=endState;fillColor=strokeColor;" vertex="1" parent="1">
          <mxGeometry x="190" y="730" width="30" height="30" as="geometry" />
        </mxCell>
        <mxCell id="zQ9of0heOYMWUSIYJV7x-13" value="Endzeit eingeben" style="rounded=1;whiteSpace=wrap;html=1;" vertex="1" parent="1">
          <mxGeometry x="220" y="590" width="120" height="60" as="geometry" />
        </mxCell>
        <mxCell id="zQ9of0heOYMWUSIYJV7x-14" value="Endzeit eingeben" style="rounded=1;whiteSpace=wrap;html=1;" vertex="1" parent="1">
          <mxGeometry x="60" y="477" width="120" height="60" as="geometry" />
        </mxCell>
        <mxCell id="zQ9of0heOYMWUSIYJV7x-19" value="" style="endArrow=none;startArrow=none;endFill=0;startFill=0;endSize=8;html=1;verticalAlign=bottom;labelBackgroundColor=none;strokeWidth=3;rounded=0;strokeColor=default;align=center;fontFamily=Helvetica;fontSize=11;fontColor=default;edgeStyle=orthogonalEdgeStyle;" edge="1" parent="1">
          <mxGeometry width="160" relative="1" as="geometry">
            <mxPoint x="120" y="710" as="sourcePoint" />
            <mxPoint x="280" y="710" as="targetPoint" />
          </mxGeometry>
        </mxCell>
      </root>
    </mxGraphModel>
  </diagram>
</mxfile>
